<svg width="246" height="24" viewBox="0 0 246 24" fill="none" xmlns="http://www.w3.org/2000/svg">
<path d="M2.9025 13.98V18H1.455V7.2525H4.6275C5.3075 7.2525 5.8975 7.3325 6.3975 7.4925C6.9025 7.6475 7.32 7.87 7.65 8.16C7.98 8.45 8.225 8.8 8.385 9.21C8.55 9.62 8.6325 10.0775 8.6325 10.5825C8.6325 11.0825 8.545 11.54 8.37 11.955C8.195 12.37 7.9375 12.7275 7.5975 13.0275C7.2625 13.3275 6.845 13.5625 6.345 13.7325C5.845 13.8975 5.2725 13.98 4.6275 13.98H2.9025ZM2.9025 12.825H4.6275C5.0425 12.825 5.4075 12.77 5.7225 12.66C6.0425 12.55 6.31 12.3975 6.525 12.2025C6.74 12.0025 6.9025 11.765 7.0125 11.49C7.1225 11.215 7.1775 10.9125 7.1775 10.5825C7.1775 9.8975 6.965 9.3625 6.54 8.9775C6.12 8.5925 5.4825 8.4 4.6275 8.4H2.9025V12.825ZM13.1202 10.2825C13.6752 10.2825 14.1752 10.375 14.6202 10.56C15.0702 10.745 15.4502 11.0075 15.7602 11.3475C16.0752 11.6875 16.3152 12.1 16.4802 12.585C16.6502 13.065 16.7352 13.6025 16.7352 14.1975C16.7352 14.7975 16.6502 15.3375 16.4802 15.8175C16.3152 16.2975 16.0752 16.7075 15.7602 17.0475C15.4502 17.3875 15.0702 17.65 14.6202 17.835C14.1752 18.015 13.6752 18.105 13.1202 18.105C12.5652 18.105 12.0627 18.015 11.6127 17.835C11.1677 17.65 10.7877 17.3875 10.4727 17.0475C10.1577 16.7075 9.9152 16.2975 9.7452 15.8175C9.5752 15.3375 9.4902 14.7975 9.4902 14.1975C9.4902 13.6025 9.5752 13.065 9.7452 12.585C9.9152 12.1 10.1577 11.6875 10.4727 11.3475C10.7877 11.0075 11.1677 10.745 11.6127 10.56C12.0627 10.375 12.5652 10.2825 13.1202 10.2825ZM13.1202 17.0625C13.8702 17.0625 14.4302 16.8125 14.8002 16.3125C15.1702 15.8075 15.3552 15.105 15.3552 14.205C15.3552 13.3 15.1702 12.595 14.8002 12.09C14.4302 11.585 13.8702 11.3325 13.1202 11.3325C12.7402 11.3325 12.4102 11.3975 12.1302 11.5275C11.8502 11.6575 11.6152 11.845 11.4252 12.09C11.2402 12.335 11.1002 12.6375 11.0052 12.9975C10.9152 13.3525 10.8702 13.755 10.8702 14.205C10.8702 14.655 10.9152 15.0575 11.0052 15.4125C11.1002 15.7675 11.2402 16.0675 11.4252 16.3125C11.6152 16.5525 11.8502 16.7375 12.1302 16.8675C12.4102 16.9975 12.7402 17.0625 13.1202 17.0625ZM17.3902 10.4025H18.4402C18.5502 10.4025 18.6402 10.43 18.7102 10.485C18.7802 10.54 18.8277 10.605 18.8527 10.68L20.3077 15.57C20.3477 15.75 20.3852 15.925 20.4202 16.095C20.4552 16.26 20.4852 16.4275 20.5102 16.5975C20.5502 16.4275 20.5952 16.26 20.6452 16.095C20.6952 15.925 20.7477 15.75 20.8027 15.57L22.4077 10.65C22.4327 10.575 22.4752 10.5125 22.5352 10.4625C22.6002 10.4125 22.6802 10.3875 22.7752 10.3875H23.3527C23.4527 10.3875 23.5352 10.4125 23.6002 10.4625C23.6652 10.5125 23.7102 10.575 23.7352 10.65L25.3027 15.57C25.3577 15.745 25.4052 15.9175 25.4452 16.0875C25.4902 16.2575 25.5327 16.425 25.5727 16.59C25.5977 16.425 25.6302 16.2525 25.6702 16.0725C25.7102 15.8925 25.7527 15.725 25.7977 15.57L27.2827 10.68C27.3077 10.6 27.3552 10.535 27.4252 10.485C27.4952 10.43 27.5777 10.4025 27.6727 10.4025H28.6777L26.2177 18H25.1602C25.0302 18 24.9402 17.915 24.8902 17.745L23.2102 12.5925C23.1702 12.4775 23.1377 12.3625 23.1127 12.2475C23.0877 12.1275 23.0627 12.01 23.0377 11.895C23.0127 12.01 22.9877 12.1275 22.9627 12.2475C22.9377 12.3675 22.9052 12.485 22.8652 12.6L21.1627 17.745C21.1077 17.915 21.0052 18 20.8552 18H19.8502L17.3902 10.4025ZM32.872 10.2825C33.327 10.2825 33.747 10.36 34.132 10.515C34.517 10.665 34.8495 10.885 35.1295 11.175C35.4095 11.46 35.627 11.815 35.782 12.24C35.942 12.66 36.022 13.14 36.022 13.68C36.022 13.89 35.9995 14.03 35.9545 14.1C35.9095 14.17 35.8245 14.205 35.6995 14.205H30.6445C30.6545 14.685 30.7195 15.1025 30.8395 15.4575C30.9595 15.8125 31.1245 16.11 31.3345 16.35C31.5445 16.585 31.7945 16.7625 32.0845 16.8825C32.3745 16.9975 32.6995 17.055 33.0595 17.055C33.3945 17.055 33.682 17.0175 33.922 16.9425C34.167 16.8625 34.377 16.7775 34.552 16.6875C34.727 16.5975 34.872 16.515 34.987 16.44C35.107 16.36 35.2095 16.32 35.2945 16.32C35.4045 16.32 35.4895 16.3625 35.5495 16.4475L35.9245 16.935C35.7595 17.135 35.562 17.31 35.332 17.46C35.102 17.605 34.8545 17.725 34.5895 17.82C34.3295 17.915 34.0595 17.985 33.7795 18.03C33.4995 18.08 33.222 18.105 32.947 18.105C32.422 18.105 31.937 18.0175 31.492 17.8425C31.052 17.6625 30.6695 17.4025 30.3445 17.0625C30.0245 16.7175 29.7745 16.2925 29.5945 15.7875C29.4145 15.2825 29.3245 14.7025 29.3245 14.0475C29.3245 13.5175 29.4045 13.0225 29.5645 12.5625C29.7295 12.1025 29.9645 11.705 30.2695 11.37C30.5745 11.03 30.947 10.765 31.387 10.575C31.827 10.38 32.322 10.2825 32.872 10.2825ZM32.902 11.265C32.257 11.265 31.7495 11.4525 31.3795 11.8275C31.0095 12.1975 30.7795 12.7125 30.6895 13.3725H34.822C34.822 13.0625 34.7795 12.78 34.6945 12.525C34.6095 12.265 34.4845 12.0425 34.3195 11.8575C34.1545 11.6675 33.952 11.5225 33.712 11.4225C33.477 11.3175 33.207 11.265 32.902 11.265ZM37.7307 18V10.4025H38.4957C38.6407 10.4025 38.7407 10.43 38.7957 10.485C38.8507 10.54 38.8882 10.635 38.9082 10.77L38.9982 11.955C39.2582 11.425 39.5782 11.0125 39.9582 10.7175C40.3432 10.4175 40.7932 10.2675 41.3082 10.2675C41.5182 10.2675 41.7082 10.2925 41.8782 10.3425C42.0482 10.3875 42.2057 10.4525 42.3507 10.5375L42.1782 11.535C42.1432 11.66 42.0657 11.7225 41.9457 11.7225C41.8757 11.7225 41.7682 11.7 41.6232 11.655C41.4782 11.605 41.2757 11.58 41.0157 11.58C40.5507 11.58 40.1607 11.715 39.8457 11.985C39.5357 12.255 39.2757 12.6475 39.0657 13.1625V18H37.7307ZM46.788 10.2825C47.243 10.2825 47.663 10.36 48.048 10.515C48.433 10.665 48.7655 10.885 49.0455 11.175C49.3255 11.46 49.543 11.815 49.698 12.24C49.858 12.66 49.938 13.14 49.938 13.68C49.938 13.89 49.9155 14.03 49.8705 14.1C49.8255 14.17 49.7405 14.205 49.6155 14.205H44.5605C44.5705 14.685 44.6355 15.1025 44.7555 15.4575C44.8755 15.8125 45.0405 16.11 45.2505 16.35C45.4605 16.585 45.7105 16.7625 46.0005 16.8825C46.2905 16.9975 46.6155 17.055 46.9755 17.055C47.3105 17.055 47.598 17.0175 47.838 16.9425C48.083 16.8625 48.293 16.7775 48.468 16.6875C48.643 16.5975 48.788 16.515 48.903 16.44C49.023 16.36 49.1255 16.32 49.2105 16.32C49.3205 16.32 49.4055 16.3625 49.4655 16.4475L49.8405 16.935C49.6755 17.135 49.478 17.31 49.248 17.46C49.018 17.605 48.7705 17.725 48.5055 17.82C48.2455 17.915 47.9755 17.985 47.6955 18.03C47.4155 18.08 47.138 18.105 46.863 18.105C46.338 18.105 45.853 18.0175 45.408 17.8425C44.968 17.6625 44.5855 17.4025 44.2605 17.0625C43.9405 16.7175 43.6905 16.2925 43.5105 15.7875C43.3305 15.2825 43.2405 14.7025 43.2405 14.0475C43.2405 13.5175 43.3205 13.0225 43.4805 12.5625C43.6455 12.1025 43.8805 11.705 44.1855 11.37C44.4905 11.03 44.863 10.765 45.303 10.575C45.743 10.38 46.238 10.2825 46.788 10.2825ZM46.818 11.265C46.173 11.265 45.6655 11.4525 45.2955 11.8275C44.9255 12.1975 44.6955 12.7125 44.6055 13.3725H48.738C48.738 13.0625 48.6955 12.78 48.6105 12.525C48.5255 12.265 48.4005 12.0425 48.2355 11.8575C48.0705 11.6675 47.868 11.5225 47.628 11.4225C47.393 11.3175 47.123 11.265 46.818 11.265ZM56.9943 18C56.8043 18 56.6843 17.9075 56.6343 17.7225L56.5143 16.8C56.1893 17.195 55.8168 17.5125 55.3968 17.7525C54.9818 17.9875 54.5043 18.105 53.9643 18.105C53.5293 18.105 53.1343 18.0225 52.7793 17.8575C52.4243 17.6875 52.1218 17.44 51.8718 17.115C51.6218 16.79 51.4293 16.385 51.2943 15.9C51.1593 15.415 51.0918 14.8575 51.0918 14.2275C51.0918 13.6675 51.1668 13.1475 51.3168 12.6675C51.4668 12.1825 51.6818 11.7625 51.9618 11.4075C52.2468 11.0525 52.5918 10.775 52.9968 10.575C53.4018 10.37 53.8618 10.2675 54.3768 10.2675C54.8418 10.2675 55.2393 10.3475 55.5693 10.5075C55.8993 10.6625 56.1943 10.8825 56.4543 11.1675V6.9525H57.7893V18H56.9943ZM54.4068 17.025C54.8418 17.025 55.2218 16.925 55.5468 16.725C55.8768 16.525 56.1793 16.2425 56.4543 15.8775V12.2025C56.2093 11.8725 55.9393 11.6425 55.6443 11.5125C55.3543 11.3775 55.0318 11.31 54.6768 11.31C53.9668 11.31 53.4218 11.5625 53.0418 12.0675C52.6618 12.5725 52.4718 13.2925 52.4718 14.2275C52.4718 14.7225 52.5143 15.1475 52.5993 15.5025C52.6843 15.8525 52.8093 16.1425 52.9743 16.3725C53.1393 16.5975 53.3418 16.7625 53.5818 16.8675C53.8218 16.9725 54.0968 17.025 54.4068 17.025ZM62.9711 18V6.9525H64.3136V11.4975C64.6286 11.1325 64.9886 10.84 65.3936 10.62C65.8036 10.395 66.2711 10.2825 66.7961 10.2825C67.2361 10.2825 67.6336 10.365 67.9886 10.53C68.3436 10.695 68.6461 10.9425 68.8961 11.2725C69.1461 11.5975 69.3386 12.0025 69.4736 12.4875C69.6086 12.9675 69.6761 13.5225 69.6761 14.1525C69.6761 14.7125 69.6011 15.235 69.4511 15.72C69.3011 16.2 69.0836 16.6175 68.7986 16.9725C68.5186 17.3225 68.1736 17.6 67.7636 17.805C67.3586 18.005 66.9011 18.105 66.3911 18.105C65.9011 18.105 65.4836 18.01 65.1386 17.82C64.7986 17.63 64.5011 17.365 64.2461 17.025L64.1786 17.715C64.1386 17.905 64.0236 18 63.8336 18H62.9711ZM66.3611 11.3475C65.9261 11.3475 65.5436 11.4475 65.2136 11.6475C64.8886 11.8475 64.5886 12.13 64.3136 12.495V16.17C64.5536 16.5 64.8186 16.7325 65.1086 16.8675C65.4036 17.0025 65.7311 17.07 66.0911 17.07C66.8011 17.07 67.3461 16.8175 67.7261 16.3125C68.1061 15.8075 68.2961 15.0875 68.2961 14.1525C68.2961 13.6575 68.2511 13.2325 68.1611 12.8775C68.0761 12.5225 67.9511 12.2325 67.7861 12.0075C67.6211 11.7775 67.4186 11.61 67.1786 11.505C66.9386 11.4 66.6661 11.3475 66.3611 11.3475ZM73.342 20.2425C73.297 20.3425 73.2395 20.4225 73.1695 20.4825C73.1045 20.5425 73.002 20.5725 72.862 20.5725H71.872L73.2595 17.5575L70.1245 10.4025H71.2795C71.3945 10.4025 71.4845 10.4325 71.5495 10.4925C71.6145 10.5475 71.662 10.61 71.692 10.68L73.7245 15.465C73.7695 15.575 73.807 15.685 73.837 15.795C73.872 15.905 73.902 16.0175 73.927 16.1325C73.962 16.0175 73.997 15.905 74.032 15.795C74.067 15.685 74.107 15.5725 74.152 15.4575L76.1245 10.68C76.1545 10.6 76.2045 10.535 76.2745 10.485C76.3495 10.43 76.4295 10.4025 76.5145 10.4025H77.5795L73.342 20.2425Z" fill="black"/>
<path d="M170.867 9.2925C170.792 9.4125 170.712 9.5025 170.627 9.5625C170.547 9.6225 170.442 9.6525 170.312 9.6525C170.197 9.6525 170.072 9.6175 169.937 9.5475C169.807 9.4725 169.657 9.39 169.487 9.3C169.322 9.21 169.132 9.13 168.917 9.06C168.702 8.985 168.457 8.9475 168.182 8.9475C167.707 8.9475 167.352 9.05 167.117 9.255C166.887 9.455 166.772 9.7275 166.772 10.0725C166.772 10.2925 166.842 10.475 166.982 10.62C167.122 10.765 167.304 10.89 167.529 10.995C167.759 11.1 168.019 11.1975 168.309 11.2875C168.604 11.3725 168.904 11.47 169.209 11.58C169.514 11.685 169.812 11.81 170.102 11.955C170.397 12.1 170.657 12.285 170.882 12.51C171.112 12.735 171.297 13.01 171.437 13.335C171.577 13.655 171.647 14.0425 171.647 14.4975C171.647 15.0025 171.559 15.475 171.384 15.915C171.209 16.355 170.954 16.74 170.619 17.07C170.289 17.395 169.879 17.6525 169.389 17.8425C168.904 18.0275 168.352 18.12 167.732 18.12C167.392 18.12 167.044 18.085 166.689 18.015C166.339 17.945 165.999 17.8475 165.669 17.7225C165.339 17.5925 165.029 17.44 164.739 17.265C164.449 17.09 164.197 16.895 163.982 16.68L164.732 15.495C164.787 15.405 164.864 15.3325 164.964 15.2775C165.064 15.2225 165.172 15.195 165.287 15.195C165.437 15.195 165.587 15.2425 165.737 15.3375C165.892 15.4325 166.064 15.5375 166.254 15.6525C166.449 15.7675 166.672 15.8725 166.922 15.9675C167.172 16.0625 167.467 16.11 167.807 16.11C168.267 16.11 168.624 16.01 168.879 15.81C169.134 15.605 169.262 15.2825 169.262 14.8425C169.262 14.5875 169.192 14.38 169.052 14.22C168.912 14.06 168.727 13.9275 168.497 13.8225C168.272 13.7175 168.014 13.625 167.724 13.545C167.434 13.465 167.137 13.3775 166.832 13.2825C166.527 13.1825 166.229 13.0625 165.939 12.9225C165.649 12.7775 165.389 12.59 165.159 12.36C164.934 12.125 164.752 11.835 164.612 11.49C164.472 11.14 164.402 10.71 164.402 10.2C164.402 9.79 164.484 9.39 164.649 9C164.814 8.61 165.057 8.2625 165.377 7.9575C165.697 7.6525 166.089 7.41 166.554 7.23C167.019 7.045 167.552 6.9525 168.152 6.9525C168.487 6.9525 168.812 6.98 169.127 7.035C169.447 7.085 169.749 7.1625 170.034 7.2675C170.319 7.3675 170.584 7.49 170.829 7.635C171.079 7.775 171.302 7.935 171.497 8.115L170.867 9.2925ZM183.692 12.5325C183.692 13.3225 183.554 14.0575 183.279 14.7375C183.009 15.4175 182.627 16.01 182.132 16.515C181.637 17.015 181.039 17.4075 180.339 17.6925C179.644 17.9775 178.872 18.12 178.022 18.12C177.172 18.12 176.397 17.9775 175.697 17.6925C174.997 17.4075 174.397 17.015 173.897 16.515C173.402 16.01 173.017 15.4175 172.742 14.7375C172.472 14.0575 172.337 13.3225 172.337 12.5325C172.337 11.7425 172.472 11.0075 172.742 10.3275C173.017 9.6475 173.402 9.0575 173.897 8.5575C174.397 8.0575 174.997 7.665 175.697 7.38C176.397 7.095 177.172 6.9525 178.022 6.9525C178.872 6.9525 179.644 7.0975 180.339 7.3875C181.039 7.6725 181.637 8.065 182.132 8.565C182.627 9.065 183.009 9.655 183.279 10.335C183.554 11.015 183.692 11.7475 183.692 12.5325ZM181.097 12.5325C181.097 11.9925 181.027 11.5075 180.887 11.0775C180.747 10.6425 180.544 10.275 180.279 9.975C180.019 9.675 179.699 9.445 179.319 9.285C178.939 9.125 178.507 9.045 178.022 9.045C177.532 9.045 177.094 9.125 176.709 9.285C176.329 9.445 176.007 9.675 175.742 9.975C175.482 10.275 175.282 10.6425 175.142 11.0775C175.002 11.5075 174.932 11.9925 174.932 12.5325C174.932 13.0775 175.002 13.5675 175.142 14.0025C175.282 14.4325 175.482 14.7975 175.742 15.0975C176.007 15.3975 176.329 15.6275 176.709 15.7875C177.094 15.9425 177.532 16.02 178.022 16.02C178.507 16.02 178.939 15.9425 179.319 15.7875C179.699 15.6275 180.019 15.3975 180.279 15.0975C180.544 14.7975 180.747 14.4325 180.887 14.0025C181.027 13.5675 181.097 13.0775 181.097 12.5325ZM191.939 7.0725V9.0225H187.454V11.79H191.189V13.7475H187.454V18H184.904V7.0725H191.939ZM201.189 7.0725V9.0825H198.114V18H195.579V9.0825H192.504V7.0725H201.189ZM201.408 7.0725H203.538C203.758 7.0725 203.941 7.1225 204.086 7.2225C204.236 7.3225 204.333 7.455 204.378 7.62L205.878 13.32C205.928 13.505 205.978 13.7025 206.028 13.9125C206.078 14.1225 206.116 14.3425 206.141 14.5725C206.191 14.3375 206.246 14.1175 206.306 13.9125C206.366 13.7025 206.423 13.505 206.478 13.32L208.248 7.62C208.293 7.48 208.388 7.355 208.533 7.245C208.683 7.13 208.863 7.0725 209.073 7.0725H209.823C210.043 7.0725 210.223 7.1225 210.363 7.2225C210.508 7.3175 210.608 7.45 210.663 7.62L212.418 13.32C212.473 13.495 212.531 13.6825 212.591 13.8825C212.651 14.0775 212.703 14.2875 212.748 14.5125C212.788 14.2925 212.828 14.0825 212.868 13.8825C212.913 13.6825 212.958 13.495 213.003 13.32L214.503 7.62C214.543 7.475 214.638 7.3475 214.788 7.2375C214.938 7.1275 215.118 7.0725 215.328 7.0725H217.323L213.948 18H211.653L209.598 11.2275C209.563 11.1225 209.526 11.0075 209.486 10.8825C209.451 10.7575 209.416 10.625 209.381 10.485C209.346 10.625 209.308 10.7575 209.268 10.8825C209.233 11.0075 209.198 11.1225 209.163 11.2275L207.078 18H204.783L201.408 7.0725ZM227.418 18H225.453C225.233 18 225.05 17.95 224.905 17.85C224.765 17.745 224.668 17.6125 224.613 17.4525L223.968 15.5475H219.813L219.168 17.4525C219.118 17.5925 219.02 17.72 218.875 17.835C218.73 17.945 218.553 18 218.343 18H216.363L220.593 7.0725H223.188L227.418 18ZM220.398 13.8225H223.383L222.378 10.83C222.313 10.64 222.235 10.4175 222.145 10.1625C222.06 9.9025 221.975 9.6225 221.89 9.3225C221.81 9.6275 221.728 9.91 221.643 10.17C221.558 10.43 221.478 10.655 221.403 10.845L220.398 13.8225ZM230.842 13.9575V18H228.307V7.0725H231.862C232.652 7.0725 233.325 7.155 233.88 7.32C234.44 7.48 234.895 7.705 235.245 7.995C235.6 8.285 235.857 8.6275 236.017 9.0225C236.177 9.4175 236.257 9.8475 236.257 10.3125C236.257 10.6675 236.21 11.0025 236.115 11.3175C236.02 11.6325 235.877 11.925 235.687 12.195C235.502 12.46 235.272 12.6975 234.997 12.9075C234.727 13.1175 234.415 13.29 234.06 13.425C234.23 13.51 234.387 13.615 234.532 13.74C234.682 13.865 234.812 14.0175 234.922 14.1975L237.247 18H234.952C234.527 18 234.222 17.84 234.037 17.52L232.222 14.3475C232.142 14.2075 232.047 14.1075 231.937 14.0475C231.832 13.9875 231.682 13.9575 231.487 13.9575H230.842ZM230.842 12.21H231.862C232.207 12.21 232.5 12.1675 232.74 12.0825C232.985 11.9925 233.185 11.87 233.34 11.715C233.495 11.56 233.607 11.38 233.677 11.175C233.747 10.965 233.782 10.74 233.782 10.5C233.782 10.02 233.625 9.645 233.31 9.375C233 9.105 232.517 8.97 231.862 8.97H230.842V12.21ZM245.318 7.0725V9.0225H240.833V11.5725H244.268V13.4475H240.833V16.05H245.318V18H238.283V7.0725H245.318Z" fill="black"/>
<path d="M91.9155 17.4109H83V7.01077H85.377V15.034H91.9116L91.9155 17.4109Z" fill="black"/>
<path d="M103.65 17.4082H97.5593L96.5189 15.0312H99.9324L98.0776 10.8462L95.1746 17.4082H92.5093V15.0312H93.5653L97.1151 7.00803H99.0479L103.65 17.4082Z" fill="black"/>
<path d="M113.902 17.4082H111.525L106.623 11.5087V17.4082H104.246V7.00803H106.627L111.525 12.8998V7.00803H113.902V17.4082Z" fill="black"/>
<path d="M124.888 17.4041H119.69C118.252 17.4041 117.029 16.8975 116.012 15.8805C114.995 14.8673 114.488 13.6399 114.488 12.202C114.488 10.7681 114.995 9.54062 116.012 8.52359C117.025 7.51046 118.252 7 119.69 7H124.888V9.37696H119.69C118.907 9.37696 118.241 9.65362 117.691 10.203C117.142 10.7525 116.865 11.4188 116.865 12.202C116.865 12.9853 117.142 13.6516 117.691 14.201C118.241 14.7504 118.907 15.0271 119.69 15.0271H122.511V13.3944H121.027L119.986 11.0174H124.888V17.4041Z" fill="#DC0000"/>
<path d="M136.63 17.4082H130.539L129.499 15.0312H132.912L131.058 10.8462L128.155 17.4082H125.489V15.0312H126.545L130.095 7.00803H132.028L136.63 17.4082Z" fill="#DC0000"/>
<path d="M148.363 17.4082H145.986V12.6971L143.535 17.4043H142.051L139.6 12.6971V17.4043H137.223V7.00803H139.604L142.795 13.3946L145.986 7.00803H148.367V17.4082H148.363Z" fill="#DC0000"/>
<path d="M157.868 17.4082H148.956V7.00803H157.868V9.38498H151.333V11.0177H156.383V13.3946H151.333V15.0273H157.868V17.4082Z" fill="#DC0000"/>
</svg>
