<svg width="102" height="62" viewBox="0 0 102 62" fill="none" xmlns="http://www.w3.org/2000/svg">
<path d="M43.2842 4.85422L44.4538 4.18295L51.7335 0L59.0132 4.18295L66.2929 8.37145V16.5654L61.5029 13.8026V11.1231L56.6182 8.31597L51.7335 5.5033L46.8488 8.31597L43.2842 10.3631V4.85422Z" fill="#DC0000"/>
<path d="M53.0488 27.2145L56.6079 25.1674L61.4926 22.3602V19.309L66.2826 22.0718V25.1119L59.0029 29.3004L57.8388 29.9717L53.0488 27.2145Z" fill="#DC0000"/>
<path d="M51.7259 33.4823L44.4462 29.2993L37.1665 25.1108V16.7394V8.36792L41.9565 5.61072V11.1196V16.7394V19.0306V22.3592L46.8412 25.1663L46.8913 25.194L51.7259 27.979L56.5159 30.7306L51.7259 33.4823Z" fill="black"/>
<path d="M48.0742 6.33331H43.2842V21.4507H48.0742V6.33331Z" fill="#DC0000"/>
<path d="M60.2442 25.8346L57.8492 29.9676L43.2842 21.4519L45.6792 17.3245L60.2442 25.8346Z" fill="#DC0000"/>
<path d="M66.2871 24.366L52.3516 16.3218V10.813L66.2871 18.8571V24.366Z" fill="#DC0000"/>
<path d="M12.1466 62.0001H0V47.885H3.23839V58.7741H12.1413L12.1466 62.0001Z" fill="black"/>
<path d="M28.1311 61.9995H19.8334L18.4159 58.7735H23.0664L20.5394 53.0937L16.5844 61.9995H12.9531V58.7735H14.3918L19.2282 47.8845H21.8613L28.1311 61.9995Z" fill="black"/>
<path d="M42.0913 61.9995H38.8529L32.1744 53.9927V61.9995H28.936V47.8845H32.1797L38.8529 55.8807V47.8845H42.0913V61.9995Z" fill="black"/>
<path d="M57.0601 61.9971H49.9782C48.0192 61.9971 46.3522 61.3096 44.9666 59.9293C43.581 58.5542 42.8909 56.8884 42.8909 54.9369C42.8909 52.9907 43.581 51.3248 44.9666 49.9445C46.3469 48.5695 48.0192 47.8767 49.9782 47.8767H57.0601V51.1027H49.9782C48.9111 51.1027 48.0033 51.4782 47.2547 52.2239C46.5062 52.9696 46.1293 53.8739 46.1293 54.9369C46.1293 55.9999 46.5062 56.9042 47.2547 57.6499C48.0033 58.3956 48.9111 58.7711 49.9782 58.7711H53.8217V56.5552H51.7991L50.3816 53.3292H57.0601V61.9971Z" fill="#DC0000"/>
<path d="M73.0634 61.9995H64.7657L63.3483 58.7735H67.9988L65.4718 53.0937L61.5167 61.9995H57.8855V58.7735H59.3242L64.1605 47.8845H66.7937L73.0634 61.9995Z" fill="#DC0000"/>
<path d="M89.0463 61.9995H85.808V55.6057L82.4687 61.9942H80.446L77.1068 55.6057V61.9942H73.8684V47.8845H77.1121L81.46 56.5523L85.808 47.8845H89.0517V61.9995H89.0463Z" fill="#DC0000"/>
<path d="M102 61.9995H89.8591V47.8845H102V51.1105H93.0975V53.3263H99.9777V56.5523H93.0975V58.7682H102V61.9995Z" fill="#DC0000"/>
</svg>
