<svg width="37" height="30" viewBox="0 0 37 30" fill="none" xmlns="http://www.w3.org/2000/svg">
<path d="M27.6667 28.3333C27.6667 29.2538 26.9205 30 26 30H10.6667C9.74619 30 9 29.2538 9 28.3333C9 27.4129 9.74619 26.6667 10.6667 26.6667H13.3333V25H3.33333C1.49238 25 0 23.5076 0 21.6667V3.33333C0 1.49238 1.49238 0 3.33333 0H33.3333C35.1743 0 36.6667 1.49238 36.6667 3.33333V21.6667C36.6667 23.5076 35.1743 25 33.3333 25H23.3333V26.6667H26C26.9205 26.6667 27.6667 27.4129 27.6667 28.3333ZM4 4V21H33V4H4Z" fill="#349EEF"/>
</svg>
