<svg width="34" height="34" viewBox="0 0 34 34" fill="none" xmlns="http://www.w3.org/2000/svg">
<path opacity="0.2" d="M0 7.5599C0 3.3932 3.48041 0 7.75634 0H16.2611C20.5283 0 24 3.383 24 7.5429V26.4401C24 30.6085 20.5196 34 16.2419 34H7.74064C3.47169 34 0 30.617 0 26.4571V24.8591V7.5599Z" fill="#DC0000"/>
<path d="M33.6316 16.5368L28.8891 11.3971C28.399 10.867 27.6102 10.867 27.1217 11.4006C26.6347 11.9342 26.6364 12.7947 27.1249 13.3247L29.7234 16.1393H27.232H13.2497C12.5599 16.1393 12 16.7489 12 17.4998C12 18.2525 12.5599 18.8602 13.2497 18.8602H29.7234L27.1249 21.6748C26.6364 22.2049 26.6347 23.0653 27.1217 23.5989C27.3667 23.8657 27.6865 24 28.0078 24C28.3259 24 28.6457 23.8657 28.8891 23.6025L33.6316 18.4645C33.8669 18.2083 34 17.862 34 17.4998C34 17.1393 33.8669 16.793 33.6316 16.5368Z" fill="#DC0000"/>
</svg>
