<svg width="37" height="37" viewBox="0 0 37 37" fill="none" xmlns="http://www.w3.org/2000/svg">
<path d="M26.529 0H10.4895C4.218 0 0 4.403 0 10.952V26.0665C0 32.597 4.218 37 10.4895 37H26.529C32.8005 37 37 32.597 37 26.0665V10.952C37 4.403 32.8005 0 26.529 0Z" fill="#FF6B00"/>
<path fill-rule="evenodd" clip-rule="evenodd" d="M17.0133 10.5921C17.0133 11.4692 17.7248 12.1842 18.5964 12.1842C19.4934 12.1842 20.2067 11.4692 20.2067 10.5921C20.2067 9.71509 19.4934 9 18.6146 9C17.7321 9 17.0133 9.71509 17.0133 10.5921ZM20.1842 16.3655C20.1842 15.4885 19.4692 14.7734 18.5921 14.7734C17.7151 14.7734 17 15.4885 17 16.3655V24.408C17 25.285 17.7151 26.0001 18.5921 26.0001C19.4692 26.0001 20.1842 25.285 20.1842 24.408V16.3655Z" fill="#FAF5FF"/>
</svg>
