<svg width="30" height="30" viewBox="0 0 30 30" fill="none" xmlns="http://www.w3.org/2000/svg">
<path opacity="0.4" d="M20.8992 0H26.1003C28.2544 0 29.9998 1.7454 29.9998 3.89942V9.10058C29.9998 11.2546 28.2544 13 26.1003 13H20.8992C18.7452 13 16.9998 11.2546 16.9998 9.10058V3.89942C16.9998 1.7454 18.7452 0 20.8992 0Z" fill="#8A1FF9"/>
<path fill-rule="evenodd" clip-rule="evenodd" d="M3.89942 0H9.10058C11.2546 0 13 1.7454 13 3.89942V9.10058C13 11.2546 11.2546 13 9.10058 13H3.89942C1.7454 13 0 11.2546 0 9.10058V3.89942C0 1.7454 1.7454 0 3.89942 0ZM20.8994 17H26.1006C28.2546 17 30 18.7454 30 20.8994V26.1006C30 28.2531 28.2546 30 26.1006 30H20.8994C18.7454 30 17 28.2531 17 26.1006V20.8994C17 18.7454 18.7454 17 20.8994 17ZM9.10058 17H3.89942C1.7454 17 0 18.7454 0 20.8994V26.1006C0 28.2531 1.7454 30 3.89942 30H9.10058C11.2546 30 13 28.2531 13 26.1006V20.8994C13 18.7454 11.2546 17 9.10058 17Z" fill="#8A1FF9"/>
</svg>
