<svg width="39" height="41" viewBox="0 0 39 41" fill="none" xmlns="http://www.w3.org/2000/svg">
<path opacity="0.4" d="M22.2458 8.68407V9.04635C21.2747 9.02728 20.3036 9.02728 19.3324 9.02728V8.70314C19.3324 7.38751 18.2253 5.31974 16.9046 5.31974H14.9817C12.7869 5.31974 11 3.56556 11 1.43004C11 0.648284 11.6604 0 12.4567 0C13.2725 0 13.9134 0.648284 13.9134 1.43004C13.9134 2.00205 14.399 2.45967 14.9817 2.45967H16.9046C19.8374 2.47873 22.2264 5.824 22.2458 8.68407Z" fill="#00AE31"/>
<path fill-rule="evenodd" clip-rule="evenodd" d="M25.6698 9.05347C26.2842 9.06214 26.9001 9.07084 27.5182 9.07734C34.1585 9.07734 39 13.9498 39 20.6785V29.3214C39 36.0501 34.1585 40.9227 27.5182 40.9227C24.8582 40.9807 22.1982 41 19.5191 41C16.84 41 14.1418 40.9807 11.4818 40.9227C4.84151 40.9227 0 36.0501 0 29.3214V20.6785C0 13.9498 4.84151 9.07734 11.501 9.07734C14.0079 9.03867 16.5721 9 19.1747 9C20.1315 9 21.0883 9 22.0451 9.01934C23.2515 9.01934 24.4579 9.03636 25.6698 9.05347ZM17.4684 26.3807H15.429V28.4302C15.429 29.2229 14.7686 29.8804 13.9723 29.8804C13.1565 29.8804 12.5155 29.2229 12.5155 28.4302V26.3807H10.4567C9.66038 26.3807 9 25.7426 9 24.9305C9 24.1378 9.66038 23.4804 10.4567 23.4804H12.5155V21.4501C12.5155 20.6574 13.1565 20 13.9723 20C14.7686 20 15.429 20.6574 15.429 21.4501V23.4804H17.4684C18.2647 23.4804 18.9251 24.1378 18.9251 24.9305C18.9251 25.7426 18.2647 26.3807 17.4684 26.3807ZM25.7243 23.1143H25.9185C26.7149 23.1143 27.3752 22.4762 27.3752 21.6641C27.3752 20.8714 26.7149 20.214 25.9185 20.214H25.7243C24.9085 20.214 24.2676 20.8714 24.2676 21.6641C24.2676 22.4762 24.9085 23.1143 25.7243 23.1143ZM29.0446 29.7641H29.2388C30.0352 29.7641 30.6956 29.1261 30.6956 28.314C30.6956 27.5212 30.0352 26.8638 29.2388 26.8638H29.0446C28.2288 26.8638 27.5879 27.5212 27.5879 28.314C27.5879 29.1261 28.2288 29.7641 29.0446 29.7641Z" fill="#00AE31"/>
</svg>
